<?xml version="1.0" standalone="no"?><!DOCTYPE svg PUBLIC "-//W3C//DTD SVG 1.1//EN" "http://www.w3.org/Graphics/SVG/1.1/DTD/svg11.dtd"><svg t="1669184535890" class="icon" viewBox="0 0 1024 1024" version="1.1" xmlns="http://www.w3.org/2000/svg" p-id="19100" xmlns:xlink="http://www.w3.org/1999/xlink" width="200" height="200"><path fill="white" d="M797.455045 1024H226.499479C103.741117 1024 3.767018 924.048765 3.767018 801.233243v-578.466486C3.767018 99.951235 103.683956 0.022864 226.499479 0.022864h570.955566C920.282 0.022864 1020.198938 99.951235 1020.198938 222.766757v578.466486c0 122.815523-99.916938 222.766757-222.743893 222.766757zM226.499479 81.271112A141.632832 141.632832 0 0 0 85.038129 222.743893v578.466485A141.6214 141.6214 0 0 0 226.499479 942.694592h570.955566a141.6214 141.6214 0 0 0 141.472782-141.461349v-578.466486A141.632832 141.632832 0 0 0 797.455045 81.271112z" p-id="19101"></path><path fill="white" d="M511.982978 784.931005A40.641272 40.641272 0 0 1 471.341706 744.301166V279.67597a40.641272 40.641272 0 1 1 81.271112 0v464.625196a40.62984 40.62984 0 0 1-40.62984 40.629839z" p-id="19102"></path><path fill="white" d="M744.295576 552.618408H279.67038a40.641272 40.641272 0 1 1 0-81.271112h464.625196a40.641272 40.641272 0 1 1 0 81.271112z" p-id="19103"></path></svg>