<svg width="16.000061" height="16.000000" viewBox="0 0 16.0001 16" fill="none" xmlns="http://www.w3.org/2000/svg" xmlns:xlink="http://www.w3.org/1999/xlink">
	<desc>
			Created with Pixso.
	</desc>
	<path id="形状结合" d="M16.0001 9.78955L16.0001 1.26318C16.0001 0.568359 15.439 0 14.7533 0L6.33771 0C5.65198 0 5.09094 0.568359 5.09094 1.26318L5.09094 9.78955C5.09094 10.4841 5.65198 11.0527 6.33771 11.0527L14.7533 11.0527C15.439 11.0527 16.0001 10.4841 16.0001 9.78955ZM4.77924 12.4209L10.9091 12.4209L10.9091 14.7368C10.9091 15.4314 10.348 16 9.66235 16L1.24677 16C0.561035 16 0 15.4314 0 14.7368L0 6.21045C0 5.51562 0.561035 4.94727 1.24677 4.94727L3.53247 4.94727L3.53247 11.1577C3.53247 11.8525 4.09351 12.4209 4.77924 12.4209Z" clip-rule="evenodd" fill-rule="evenodd" fill="#2F3133" fill-opacity="1.000000"/>
	<defs/>
</svg>
