<?xml version="1.0" standalone="no"?><!DOCTYPE svg PUBLIC "-//W3C//DTD SVG 1.1//EN" "http://www.w3.org/Graphics/SVG/1.1/DTD/svg11.dtd"><svg t="1684982464201" class="icon" viewBox="0 0 1025 1024" version="1.1" xmlns="http://www.w3.org/2000/svg" p-id="4437" data-spm-anchor-id="a313x.7781069.0.i7" xmlns:xlink="http://www.w3.org/1999/xlink" width="200.1953125" height="200"><path d="M1000 242H26c-13.8 0-25-11.2-25-25s11.2-25 25-25h974c13.8 0 25 11.2 25 25s-11.2 25-25 25z" p-id="4438" fill="#c0bfc4"></path><path d="M855.7 193.4h-684c-27.6 0-50 22.4-50 50v730c0 27.6 22.4 50 50 50h684c27.6 0 50-22.4 50-50v-730c0-27.6-22.4-50-50-50z m0 755c0 13.8-11.2 25-25 25h-634c-13.8 0-25-11.2-25-25v-705h684v705zM788.7 112H237.4c-13.8 0-25-11.2-25-25s11.2-25 25-25h551.3c13.8 0 25 11.2 25 25s-11.2 25-25 25z" p-id="4439" fill="#c0bfc4"></path><path d="M452.2 447.4v322c0 13.8-11.2 25-25 25s-25-11.2-25-25v-322c0-13.8 11.2-25 25-25s25 11.2 25 25zM625.2 447.4v322c0 13.8-11.2 25-25 25s-25-11.2-25-25v-322c0-13.8 11.2-25 25-25s25 11.2 25 25z" p-id="4440" fill="#c0bfc4"></path></svg>