<?xml version="1.0" standalone="no"?><!DOCTYPE svg PUBLIC "-//W3C//DTD SVG 1.1//EN" "http://www.w3.org/Graphics/SVG/1.1/DTD/svg11.dtd"><svg t="1686385116854" class="icon" viewBox="0 0 1024 1024" version="1.1" xmlns="http://www.w3.org/2000/svg" p-id="1498" xmlns:xlink="http://www.w3.org/1999/xlink" width="200" height="200"><path fill="white" d="M981.771965 489.001378c-12.699242-21.898693-40.897559-29.49824-62.896246-16.798998l-406.975713 234.985977-406.975713-234.985977C83.0256 459.503138 54.727289 467.102684 42.028047 489.001378c-12.699242 21.898693-5.099696 50.197004 16.798997 62.896246l428.47443 247.385237c7.699541 4.399737 16.199033 6.399618 24.498538 6.099636 8.299505 0.299982 16.798997-1.599905 24.498538-6.099636L964.972968 551.897624c21.898693-12.699242 29.49824-40.997553 16.798997-62.896246z" p-id="1499"></path><path fill="white" d="M981.771965 707.588333c-12.699242-21.898693-40.897559-29.49824-62.896246-16.798998l-406.975713 234.985977-406.975713-234.985977C83.0256 678.090093 54.727289 685.68964 42.028047 707.588333c-12.699242 21.898693-5.099696 50.197004 16.798997 62.896246l428.47443 247.385237c7.699541 4.399737 16.199033 6.399618 24.498538 6.099636 8.299505 0.299982 16.798997-1.599905 24.498538-6.099636L964.972968 770.484579c21.898693-12.699242 29.49824-40.897559 16.798997-62.896246zM987.871601 293.41305v-0.999941c-0.099994-7.499552-2.099875-15.099099-6.099636-21.998687-1.299922-2.299863-2.899827-4.499731-4.599725-6.499612 0 0 0-0.099994-0.099994-0.099994-0.399976-0.49997-0.799952-0.99994-1.299923-1.49991l-0.49997-0.499971c-0.299982-0.299982-0.599964-0.599964-0.899946-0.99994-0.299982-0.299982-0.599964-0.599964-0.999941-0.899946l-0.49997-0.49997c-0.49997-0.399976-0.99994-0.899946-1.49991-1.299923 0 0-0.099994 0-0.099994-0.099994-1.999881-1.699899-4.199749-3.199809-6.499612-4.599725L536.498538 6.130194C528.798997 1.730457 520.299505-0.269424 512 0.030558c-8.299505-0.299982-16.798997 1.599905-24.498538 6.099636L59.027032 253.515431c-2.299863 1.299922-4.499731 2.899827-6.499612 4.599725 0 0-0.099994 0-0.099994 0.099994-0.49997 0.399976-0.99994 0.799952-1.49991 1.299923l-0.49997 0.49997c-0.299982 0.299982-0.599964 0.599964-0.999941 0.899946-0.299982 0.299982-0.599964 0.599964-0.899946 0.999941l-0.49997 0.49997c-0.399976 0.49997-0.899946 0.99994-1.299923 1.49991 0 0 0 0.099994-0.099994 0.099994-1.699899 1.999881-3.199809 4.199749-4.599725 6.499612-3.999761 6.899588-5.999642 14.499135-6.099636 21.998687v1.999881c0.099994 7.499552 2.099875 15.099099 6.099636 21.998687 1.299922 2.299863 2.899827 4.499731 4.599725 6.499612 0 0 0 0.099994 0.099994 0.099994 0.399976 0.49997 0.799952 0.99994 1.299923 1.499911 0.199988 0.199988 0.299982 0.399976 0.49997 0.49997 0.299982 0.299982 0.599964 0.599964 0.899946 0.99994 0.299982 0.299982 0.599964 0.599964 0.999941 0.899947l0.49997 0.49997c0.49997 0.399976 0.99994 0.899946 1.49991 1.299922 0 0 0.099994 0 0.099994 0.099994 1.999881 1.699899 4.199749 3.199809 6.499612 4.599726l428.47443 247.385236c7.699541 4.399737 16.199033 6.399618 24.498538 6.099636 8.299505 0.299982 16.798997-1.599905 24.498538-6.099636L964.972968 333.210675c2.299863-1.299922 4.499731-2.899827 6.499612-4.599726 0 0 0.099994 0 0.099994-0.099994 0.49997-0.399976 0.99994-0.799952 1.49991-1.299922 0.199988-0.199988 0.399976-0.299982 0.49997-0.49997 0.299982-0.299982 0.599964-0.599964 0.999941-0.899947 0.299982-0.299982 0.599964-0.599964 0.899946-0.99994l0.49997-0.49997c0.399976-0.49997 0.899946-0.99994 1.299923-1.499911 0 0 0-0.099994 0.099994-0.099994 1.699899-1.999881 3.199809-4.199749 4.599725-6.499612 3.999761-6.899588 5.999642-14.499135 6.099636-21.998687-0.199988-0.199988-0.199988-0.49997-0.199988-0.799952zM512 488.501407L174.120164 293.41305 512 98.324692l337.879836 195.088358L512 488.501407z" p-id="1500"></path></svg>