<svg width="46" height="26" viewBox="0 0 46 26" fill="none" xmlns="http://www.w3.org/2000/svg"><path fill-rule="evenodd" clip-rule="evenodd" d="M9.0438 26C5.77958 26 2.85619 24.3124 1.22408 21.4852C-0.408027 18.658 -0.408027 15.2827 1.22408 12.4561L8.10168 0.543926C8.52041 -0.181308 9.56719 -0.181309 9.98591 0.543925L16.8635 12.4561C18.4956 15.2833 18.4956 18.6585 16.8635 21.4852C15.2309 24.3124 12.308 26 9.0438 26ZM8.57274 3.6712L7.10637 6.21106C6.72268 7.0812 6.07576 8.9601 6.69514 10.6831C7.176 12.0199 8.35942 13.0542 10.2134 13.7575C12.91 14.7841 14.6719 16.3015 15.4511 18.268C15.5781 18.5886 15.6723 18.9059 15.7397 19.2161C16.387 17.3149 16.1925 15.2373 15.1561 13.4423L9.51486 3.6712C9.3055 3.30857 8.7821 3.30857 8.57274 3.6712ZM2.9315 13.4423L4.60596 10.542C4.66068 10.8043 4.73356 11.0679 4.82737 11.3309C5.50841 13.2414 7.08336 14.677 9.50754 15.5966C11.6521 16.4135 13.0297 17.5477 13.6021 18.9685C14.2218 20.5071 13.7202 22 13.5582 22.4078C12.3161 23.4465 10.7386 24.0287 9.0438 24.0287C6.49202 24.0287 4.20739 22.7099 2.9315 20.5001C1.65561 18.2902 1.65561 15.6521  " fill="white"></path></svg>