<?xml version="1.0" standalone="no"?><!DOCTYPE svg PUBLIC "-//W3C//DTD SVG 1.1//EN" "http://www.w3.org/Graphics/SVG/1.1/DTD/svg11.dtd"><svg t="1686560149727" class="icon" viewBox="0 0 1024 1024" version="1.1" xmlns="http://www.w3.org/2000/svg" p-id="8230" xmlns:xlink="http://www.w3.org/1999/xlink" width="200" height="200"><path d="M60.330667 451.669333L149.333333 362.666667v-128a85.333333 85.333333 0 0 1 85.333334-85.333334h128l89.002666-89.002666a85.333333 85.333333 0 0 1 120.661334 0L661.333333 149.333333h128a85.333333 85.333333 0 0 1 85.333334 85.333334v128l89.002666 89.002666a85.333333 85.333333 0 0 1 0 120.661334L874.666667 661.333333v128a85.333333 85.333333 0 0 1-85.333334 85.333334h-128l-89.002666 89.002666a85.333333 85.333333 0 0 1-120.661334 0L362.666667 874.666667h-128a85.333333 85.333333 0 0 1-85.333334-85.333334v-128l-89.002666-89.002666a85.333333 85.333333 0 0 1 0-120.661334zM298.666667 554.666667l138.410666 138.410666a42.666667 42.666667 0 0 0 62.293334-2.048l232.021333-265.173333a59.434667 59.434667 0 1 0-90.368-77.226667L469.333333 554.666667l-85.333333-85.333334a60.330667 60.330667 0 1 0-85.333333 85.333334z" fill="#1296db" p-id="8231"></path></svg>